<mxfile host="app.diagrams.net" agent="Mozilla/5.0 (Windows NT 10.0; Win64; x64) AppleWebKit/537.36 (KHTML, like Gecko) Chrome/131.0.0.0 Safari/537.36 Edg/131.0.0.0" version="26.0.5">
  <diagram name="Page-1" id="HAxMbtya4LotFJ6Fu0_O">
    <mxGraphModel dx="872" dy="481" grid="1" gridSize="10" guides="1" tooltips="1" connect="0" arrows="1" fold="1" page="1" pageScale="1" pageWidth="827" pageHeight="1169" background="#ffffff" math="0" shadow="0">
      <root>
        <mxCell id="0" />
        <mxCell id="1" parent="0" />
        <mxCell id="ar-RXBT9pt9ByesaWcNM-1" value="Donor/Data-&lt;span style=&quot;background-color: transparent; color: light-dark(rgb(0, 0, 0), rgb(255, 255, 255));&quot;&gt;entry/Finance&lt;/span&gt;&lt;div&gt;&lt;div&gt;&lt;br&gt;&lt;/div&gt;&lt;/div&gt;" style="shape=umlActor;verticalLabelPosition=bottom;verticalAlign=top;html=1;fillColor=light-dark(#008575, #ededed);" vertex="1" parent="1">
          <mxGeometry x="120" y="170" width="30" height="60" as="geometry" />
        </mxCell>
        <mxCell id="ar-RXBT9pt9ByesaWcNM-2" value="WebBrowser" style="ellipse;whiteSpace=wrap;html=1;fillColor=#FF0080;" vertex="1" parent="1">
          <mxGeometry x="274" y="170" width="140" height="70" as="geometry" />
        </mxCell>
        <mxCell id="ar-RXBT9pt9ByesaWcNM-3" value="Application Server" style="ellipse;whiteSpace=wrap;html=1;fillColor=#FF0080;" vertex="1" parent="1">
          <mxGeometry x="530" y="170" width="140" height="70" as="geometry" />
        </mxCell>
        <mxCell id="ar-RXBT9pt9ByesaWcNM-4" value="name" style="endArrow=block;endFill=1;html=1;edgeStyle=orthogonalEdgeStyle;align=left;verticalAlign=top;rounded=0;exitX=0.5;exitY=0.5;exitDx=0;exitDy=0;exitPerimeter=0;" edge="1" parent="1" source="ar-RXBT9pt9ByesaWcNM-1">
          <mxGeometry x="-1" relative="1" as="geometry">
            <mxPoint x="144" y="199.5" as="sourcePoint" />
            <mxPoint x="274" y="199.5" as="targetPoint" />
            <Array as="points">
              <mxPoint x="180" y="200" />
            </Array>
          </mxGeometry>
        </mxCell>
        <mxCell id="ar-RXBT9pt9ByesaWcNM-5" value="1" style="edgeLabel;resizable=0;html=1;align=left;verticalAlign=bottom;" connectable="0" vertex="1" parent="ar-RXBT9pt9ByesaWcNM-4">
          <mxGeometry x="-1" relative="1" as="geometry" />
        </mxCell>
        <mxCell id="ar-RXBT9pt9ByesaWcNM-6" value="name" style="endArrow=block;endFill=1;html=1;edgeStyle=orthogonalEdgeStyle;align=left;verticalAlign=top;rounded=0;exitX=1;exitY=0.5;exitDx=0;exitDy=0;" edge="1" parent="1" source="ar-RXBT9pt9ByesaWcNM-2">
          <mxGeometry x="-1" relative="1" as="geometry">
            <mxPoint x="430" y="199.5" as="sourcePoint" />
            <mxPoint x="530" y="199.5" as="targetPoint" />
            <Array as="points">
              <mxPoint x="414" y="200" />
              <mxPoint x="420" y="200" />
            </Array>
          </mxGeometry>
        </mxCell>
        <mxCell id="ar-RXBT9pt9ByesaWcNM-7" value="1" style="edgeLabel;resizable=0;html=1;align=left;verticalAlign=bottom;" connectable="0" vertex="1" parent="ar-RXBT9pt9ByesaWcNM-6">
          <mxGeometry x="-1" relative="1" as="geometry" />
        </mxCell>
      </root>
    </mxGraphModel>
  </diagram>
</mxfile>
